<svg width="2086" height="276" viewBox="0 0 2086 276" fill="none" xmlns="http://www.w3.org/2000/svg">
<g clip-path="url(#clip0)">
<path d="M414.938 193V150.012H459.365V131.923H414.938V102.634H463.603V83.7886H392.082V193H414.938ZM495.844 194.287C505.986 194.287 516.052 189.216 520.593 180.588H521.047V193H542.39V137.221C542.39 120.874 528.842 110.126 508.029 110.126C486.535 110.126 473.139 120.949 472.307 136.691H492.514C493.574 130.712 498.796 126.625 507.045 126.625C515.371 126.625 520.668 131.015 520.668 138.583V143.957L500.234 145.168C480.026 146.379 468.674 154.931 468.674 169.689C468.674 184.296 480.405 194.287 495.844 194.287ZM503.11 178.317C495.617 178.317 490.622 174.533 490.622 168.479C490.622 162.727 495.314 159.018 503.564 158.413L520.668 157.353V163.256C520.668 172.036 512.722 178.317 503.11 178.317ZM562.597 93.1733V111.867H551.169V128.518H562.597V171.127C562.597 186.945 570.014 193.303 589.086 193.303C593.552 193.303 597.336 192.924 599.606 192.395V176.123C598.244 176.35 596.201 176.501 594.233 176.501C587.724 176.501 584.697 173.549 584.697 167.343V128.518H599.682V111.867H584.697V93.1733H562.597ZM667.268 193V159.624L677.485 147.363L709.877 193H737.199L693.984 132.226L734.399 83.7886H708.969L667.949 133.588H667.268V83.7886H644.411V193H667.268ZM756.347 100.893C762.78 100.893 767.851 95.7466 767.851 89.5405C767.851 83.2588 762.78 78.188 756.347 78.188C749.914 78.188 744.843 83.2588 744.843 89.5405C744.843 95.7466 749.914 100.893 756.347 100.893ZM745.373 193H767.473V111.867H745.373V193ZM788.134 93.1733V111.867H776.706V128.518H788.134V171.127C788.134 186.945 795.551 193.303 814.624 193.303C819.089 193.303 822.873 192.924 825.144 192.395V176.123C823.781 176.35 821.738 176.501 819.77 176.501C813.261 176.501 810.234 173.549 810.234 167.343V128.518H825.219V111.867H810.234V93.1733H788.134ZM843.232 93.1733V111.867H831.804V128.518H843.232V171.127C843.232 186.945 850.649 193.303 869.721 193.303C874.187 193.303 877.971 192.924 880.241 192.395V176.123C878.879 176.35 876.835 176.501 874.868 176.501C868.359 176.501 865.332 173.549 865.332 167.343V128.518H880.317V111.867H865.332V93.1733H843.232ZM944.951 168.176C942.907 174.382 936.701 178.393 928.603 178.393C917.326 178.393 909.985 170.446 909.985 158.867V157.504H965.915V150.769C965.915 126.096 951.005 110.126 927.392 110.126C903.4 110.126 888.264 126.928 888.264 152.812C888.264 178.771 903.249 194.741 928.225 194.741C948.281 194.741 962.812 184.069 965.234 168.176H944.951ZM927.619 126.474C937.458 126.474 944.194 133.588 944.648 143.957H910.212C910.969 133.815 917.932 126.474 927.619 126.474ZM977.343 193H999.443V146.455C999.443 135.935 1005.72 128.669 1015.64 128.669C1025.55 128.669 1030.55 134.724 1030.55 145.319V193H1052.65V140.703C1052.65 121.706 1042.51 110.354 1024.49 110.354C1012.01 110.354 1003.45 116.257 999.14 126.323H998.686V111.867H977.343V193Z" fill="#F7F5F5"/>
<path d="M1164.66 118.376H1165.34L1186.08 193H1207.65L1236.64 83.7886H1212.95L1195.69 162.878H1195.08L1174.65 83.7886H1155.35L1134.92 162.878H1134.31L1117.13 83.7886H1093.44L1122.35 193H1143.92L1164.66 118.376ZM1291.73 168.176C1289.69 174.382 1283.48 178.393 1275.39 178.393C1264.11 178.393 1256.77 170.446 1256.77 158.867V157.504H1312.7V150.769C1312.7 126.096 1297.79 110.126 1274.17 110.126C1250.18 110.126 1235.05 126.928 1235.05 152.812C1235.05 178.771 1250.03 194.741 1275.01 194.741C1295.06 194.741 1309.59 184.069 1312.02 168.176H1291.73ZM1274.4 126.474C1284.24 126.474 1290.98 133.588 1291.43 143.957H1256.99C1257.75 133.815 1264.71 126.474 1274.4 126.474ZM1372.34 194.287C1392.77 194.287 1405.26 178.544 1405.26 152.434C1405.26 126.247 1392.69 110.581 1372.26 110.581C1360.68 110.581 1351.67 116.333 1347.21 125.944H1346.75V83.7886H1324.66V193H1346.45V179.074H1346.91C1351.37 188.535 1360.45 194.287 1372.34 194.287ZM1364.69 128.291C1375.67 128.291 1382.63 137.675 1382.63 152.434C1382.63 167.268 1375.74 176.501 1364.69 176.501C1353.94 176.501 1346.68 167.116 1346.68 152.434C1346.68 137.902 1354.02 128.291 1364.69 128.291ZM1445.22 161.818C1445.9 182.404 1463.23 194.816 1489.27 194.816C1516.59 194.816 1533.31 181.345 1533.31 160.002C1533.31 143.427 1523.25 134.118 1500.17 129.501L1488.59 127.155C1475.72 124.582 1470.42 120.419 1470.42 113.684C1470.42 105.661 1477.99 100.363 1489.27 100.363C1500.77 100.363 1508.87 105.964 1509.63 115.273H1531.2C1530.82 95.2168 1514.77 81.8965 1489.27 81.8965C1464.97 81.8965 1447.57 95.1411 1447.57 115.122C1447.57 131.394 1458.24 141.838 1480.03 146.152L1491.54 148.422C1505.24 151.223 1510.38 155.31 1510.38 162.5C1510.38 170.522 1502.06 176.425 1489.87 176.425C1477.46 176.425 1468.23 170.976 1466.79 161.818H1445.22ZM1599.16 168.176C1597.12 174.382 1590.91 178.393 1582.81 178.393C1571.54 178.393 1564.19 170.446 1564.19 158.867V157.504H1620.12V150.769C1620.12 126.096 1605.21 110.126 1581.6 110.126C1557.61 110.126 1542.47 126.928 1542.47 152.812C1542.47 178.771 1557.46 194.741 1582.43 194.741C1602.49 194.741 1617.02 184.069 1619.44 168.176H1599.16ZM1581.83 126.474C1591.67 126.474 1598.4 133.588 1598.86 143.957H1564.42C1565.18 133.815 1572.14 126.474 1581.83 126.474ZM1631.55 193H1653.65V147.666C1653.65 136.237 1660.01 129.577 1670.91 129.577C1674.09 129.577 1677.11 130.107 1678.93 130.864V111.413C1677.42 110.959 1675.22 110.581 1672.65 110.581C1663.11 110.581 1656.23 116.181 1653.35 126.474H1652.9V111.867H1631.55V193ZM1762.18 111.867H1739.1L1722.3 173.474H1721.84L1704.97 111.867H1681.28L1709.35 193H1734.33L1762.18 111.867ZM1781.25 100.893C1787.69 100.893 1792.76 95.7466 1792.76 89.5405C1792.76 83.2588 1787.69 78.188 1781.25 78.188C1774.82 78.188 1769.75 83.2588 1769.75 89.5405C1769.75 95.7466 1774.82 100.893 1781.25 100.893ZM1770.28 193H1792.38V111.867H1770.28V193ZM1880.85 142.065C1879.87 123.674 1865.94 110.126 1844 110.126C1819.7 110.126 1804.19 126.323 1804.19 152.358C1804.19 178.847 1819.7 194.741 1844.15 194.741C1865.49 194.741 1879.79 182.404 1880.93 163.256H1860.34C1858.98 172.111 1853.23 177.409 1844.37 177.409C1833.4 177.409 1826.59 168.327 1826.59 152.358C1826.59 136.691 1833.4 127.458 1844.3 127.458C1853.38 127.458 1859.06 133.513 1860.34 142.065H1880.85ZM1945.34 168.176C1943.29 174.382 1937.09 178.393 1928.99 178.393C1917.71 178.393 1910.37 170.446 1910.37 158.867V157.504H1966.3V150.769C1966.3 126.096 1951.39 110.126 1927.78 110.126C1903.79 110.126 1888.65 126.928 1888.65 152.812C1888.65 178.771 1903.63 194.741 1928.61 194.741C1948.67 194.741 1963.2 184.069 1965.62 168.176H1945.34ZM1928 126.474C1937.84 126.474 1944.58 133.588 1945.03 143.957H1910.6C1911.35 133.815 1918.32 126.474 1928 126.474ZM1976.37 135.708C1976.37 147.893 1984.31 155.764 1999.98 159.094L2013.83 161.97C2021.78 163.786 2024.58 166.208 2024.58 170.522C2024.58 175.82 2019.43 179.226 2011.11 179.226C2002.33 179.226 1997.26 175.441 1995.89 168.327H1974.32C1975.76 184.296 1988.7 194.741 2011.11 194.741C2031.99 194.741 2046.6 184.221 2046.6 168.251C2046.6 156.369 2039.64 149.709 2022.69 146.152L2008.83 143.2C2000.66 141.459 1997.63 138.659 1997.63 134.497C1997.63 129.123 2002.7 125.642 2010.35 125.642C2018.52 125.642 2023.44 130.107 2024.12 136.691H2044.48C2044.03 120.798 2031.16 110.126 2010.35 110.126C1989.69 110.126 1976.37 120.268 1976.37 135.708Z" fill="#FC7B25"/>
<path d="M192.44 11.4412C175.68 4.08472 157.17 0 137.71 0C81.68 0 33.52 33.8217 12.42 82.2058C4.45001 99.7589 0 119.249 0 139.753C0 170.052 9.53 198.845 27.56 223.042C43.05 243.837 64.4 260.066 88.37 269.479C89.46 270.021 90.7 270.493 92.07 270.884C93.85 271.527 95.65 272.129 97.46 272.701C101.4 273.935 105.45 274.999 109.49 275.862C109.65 275.892 109.8 275.913 109.95 275.913C110.97 275.913 111.88 275.2 112.11 274.156C112.23 273.614 112.12 273.082 111.88 272.631C111.83 272.47 111.76 272.32 111.67 272.169C106.12 263.227 113.6 257.958 114.46 257.396C115.22 256.904 115.61 255.991 115.43 255.098C115.33 254.586 105.26 203.191 111.42 171.397C111.65 170.192 110.87 169.028 109.67 168.797C108.47 168.566 107.32 169.349 107.08 170.554C101.25 200.672 109.23 246.075 110.84 254.626C108.36 256.764 103.23 262.374 105.98 270.493C103.55 269.881 101.14 269.208 98.77 268.476C97.29 268.014 95.82 267.512 94.36 267.001C94.21 266.92 94.06 266.86 93.89 266.82C93.76 266.79 93.65 266.75 93.53 266.719C92.34 266.288 91.15 265.826 89.97 265.365C88.22 264.421 87.15 263.247 86.77 261.842C85.6 257.506 90.71 251.224 92.77 249.176C93.3 248.655 93.53 247.902 93.39 247.169C78.44 171.055 99.27 126.174 99.5 125.692C100.16 124.237 99.65 123.334 95.35 116.961C94.64 115.907 93.76 114.592 93.6 114.291C91.89 110.959 90.46 107.477 89.35 103.954C87.17 97.0491 86.16 89.8231 86.35 82.5068C86.69 69.0584 90.27 56.0918 96.42 45.9955C98.14 43.1653 101.21 40.2348 104.66 40.5158C109.63 40.9072 113.2 47.2901 115.81 51.9569C116.08 52.4286 116.33 52.8903 116.58 53.3319C117.96 55.7506 120.02 60.2066 120.04 62.535C120.04 63.2676 120.41 63.9501 121.01 64.3515C121.61 64.763 122.38 64.8433 123.05 64.5823C123.18 64.5321 136.29 59.5643 151.32 67.9545C152.39 68.5466 153.73 68.1652 154.32 67.0914C154.5 66.7602 154.59 66.4089 154.6 66.0576C155.38 64.482 158.92 59.6044 159.58 58.8116C162.79 55.1885 167.39 51.9368 171.58 50.321C175.04 48.9862 177.75 49.1067 179.87 50.6623C185.32 54.6867 186.52 67.6835 185.89 77.5891C185.38 85.7183 183.61 97.7516 178.12 108.882C176.24 112.695 173.9 116.399 171.18 119.901C170.81 120.373 170.38 120.955 169.89 121.607C167.85 124.347 164.04 129.456 161.7 130.168C160.53 130.52 159.88 131.744 160.23 132.918C160.25 132.988 160.27 133.059 160.3 133.119C162.6 140.817 168.68 148.494 175.7 157.376C187.6 172.41 202.26 190.957 202.07 216.288C202.07 216.338 202.06 216.378 202.06 216.419C202.06 216.459 202.06 216.519 202.07 216.579C202.07 216.8 202.07 217.011 202.07 217.231C202.07 217.252 202.07 217.282 202.07 217.302C202.06 217.643 202.04 218.004 202.03 218.345C201.91 220.684 201.62 224.237 201.51 224.939C200.93 228.883 199.57 232.015 197.23 234.805C195.5 236.862 193.17 238.829 189.67 241.188C177.34 249.487 166.2 253.813 155.62 254.395C150.18 254.696 147.69 253.412 147.12 252.9C147.22 251.565 149.8 245.463 162.1 239.552C164.85 238.237 166.92 235.919 167.93 233.038C168.94 230.158 168.78 227.047 167.46 224.287C165.13 219.389 159.63 216.8 154.4 218.125C153.67 218.305 152.95 218.566 152.25 218.907C146.36 221.738 141.29 225.07 137.14 228.723C134.88 214.291 132.87 193.968 134.67 173.153C134.78 171.939 133.88 170.855 132.66 170.754C131.44 170.634 130.38 171.547 130.27 172.772C128.3 195.553 130.79 217.703 133.28 232.496C125.89 240.596 122.76 249.859 125.02 258.701C127.37 267.894 136.19 277.328 153.95 277.328C154.9 277.328 155.87 277.298 156.87 277.247C168.75 276.585 180.71 272.942 190.78 268.787C196.67 266.398 202.34 263.638 207.75 260.537C211.68 258.319 214.5 256.493 215.81 255.549C253.69 230.208 277.39 187.234 277.39 139.763C277.39 82.1154 242.3 32.5571 192.44 11.4412ZM213.61 251.675C213.54 251.736 213.44 251.806 213.34 251.876C210.75 253.602 208.1 255.248 205.37 256.804C201.03 259.233 195.29 262.153 188.74 264.833C185.94 265.957 183.11 267.01 180.21 267.954C180.07 267.994 179.95 268.054 179.82 268.125C172.44 270.553 164.49 272.39 156.63 272.821C139.57 273.755 131.33 265.575 129.29 257.597C126.15 245.282 135.91 231.663 154.15 222.892C154.58 222.691 155.02 222.53 155.47 222.41C156.03 222.27 156.6 222.199 157.16 222.199C159.8 222.199 162.29 223.715 163.47 226.194C164.28 227.88 164.38 229.787 163.76 231.553C163.14 233.319 161.87 234.734 160.19 235.547C145.85 242.432 141.94 250.591 142.84 254.114C143.66 257.306 148.88 259.192 155.86 258.811C167.25 258.179 179.12 253.612 192.13 244.861C195.98 242.272 198.6 240.043 200.6 237.655C203.49 234.213 205.17 230.379 205.87 225.581C205.94 225.13 206.16 222.771 206.31 220.473C214.62 226.936 218.94 233.349 219.16 239.582C219.43 246.888 213.72 251.585 213.61 251.675Z" fill="#F7F5F5"/>
<path d="M120.755 88.6334C121.265 85.8024 119.946 83.1935 117.81 82.8062C115.675 82.4189 113.53 84.3999 113.02 87.2308C112.511 90.0618 113.829 92.6707 115.965 93.058C118.101 93.4453 120.246 91.4643 120.755 88.6334Z" fill="#FC7B25"/>
<path d="M155.177 94.3396C155.686 91.5087 154.368 88.8998 152.232 88.5124C150.096 88.1251 147.951 90.1061 147.442 92.9371C146.932 95.7681 148.25 98.377 150.386 98.7643C152.522 99.1516 154.667 97.1706 155.177 94.3396Z" fill="#FC7B25"/>
<path d="M128.38 102.619L136.23 103.723C137.08 103.844 137.39 104.907 136.74 105.469L132.19 109.393C131.74 109.785 131.04 109.685 130.71 109.183L127.41 104.155C126.94 103.442 127.54 102.499 128.38 102.619Z" fill="#FC7B25"/>
<path d="M123.13 110.538L109.58 112.485C109.31 112.525 109.12 112.776 109.16 113.057C109.2 113.308 109.41 113.488 109.65 113.488C109.67 113.488 109.7 113.488 109.72 113.488L123.27 111.541C123.54 111.501 123.73 111.25 123.69 110.969C123.65 110.688 123.4 110.497 123.13 110.538Z" fill="#FC7B25"/>
<path d="M123.2 106.112H99.79C99.51 106.112 99.29 106.332 99.29 106.613C99.29 106.895 99.51 107.115 99.79 107.115H123.2C123.48 107.115 123.7 106.895 123.7 106.613C123.7 106.332 123.47 106.112 123.2 106.112Z" fill="#FC7B25"/>
<path d="M163.25 113.9L140.37 109.303C140.1 109.243 139.84 109.424 139.78 109.695C139.73 109.966 139.9 110.227 140.17 110.287L163.05 114.883C163.08 114.893 163.12 114.893 163.15 114.893C163.38 114.893 163.59 114.733 163.64 114.492C163.7 114.221 163.52 113.95 163.25 113.9Z" fill="#FC7B25"/>
<path d="M151.18 116.921L139.21 112.685C138.95 112.595 138.66 112.726 138.57 112.996C138.48 113.257 138.61 113.548 138.88 113.639L150.85 117.874C150.91 117.894 150.96 117.904 151.02 117.904C151.23 117.904 151.42 117.774 151.49 117.573C151.57 117.302 151.44 117.011 151.18 116.921Z" fill="#FC7B25"/>
</g>
<defs>
<clipPath id="clip0">
<rect width="2086" height="276" fill="white"/>
</clipPath>
</defs>
</svg>
